<?xml version="1.0" standalone="no"?><!DOCTYPE svg PUBLIC "-//W3C//DTD SVG 1.1//EN" "http://www.w3.org/Graphics/SVG/1.1/DTD/svg11.dtd"><svg t="1615432186975" class="icon" viewBox="0 0 1024 1024" version="1.1" xmlns="http://www.w3.org/2000/svg" p-id="5559" xmlns:xlink="http://www.w3.org/1999/xlink" width="200" height="200"><defs><style type="text/css"></style></defs><path d="M512.725504 256a307.2 307.2 0 0 1 307.2 307.2v256a51.2 51.2 0 0 1-51.2 51.2h-512a51.2 51.2 0 0 1-51.2-51.2v-256a307.2 307.2 0 0 1 307.2-307.2z m0 486.4a179.2 179.2 0 1 0 0-358.4 179.2 179.2 0 0 0 0 358.4z m0-51.2a128 128 0 1 1 0-256 128 128 0 0 1 0 256z m-358.4 230.4h716.8a51.2 51.2 0 0 1 0 102.4h-716.8a51.2 51.2 0 0 1 0-102.4z m358.4-921.6a51.2 51.2 0 0 1 51.2 51.2v51.2a51.2 51.2 0 0 1-102.4 0V51.2a51.2 51.2 0 0 1 51.2-51.2z m316.0064 102.656a51.2 51.2 0 0 1 11.264 71.5264l-30.0544 41.472a51.2 51.2 0 1 1-82.8416-60.2112l30.1056-41.472a51.2 51.2 0 0 1 71.5264-11.264z m193.28 268.8a51.2 51.2 0 0 1-32.8704 64.512l-48.64 15.872a51.2 51.2 0 0 1-31.6928-97.4336l48.6912-15.8208a51.2 51.2 0 0 1 64.512 32.8704z m-1019.0336 0a51.2 51.2 0 0 1 64.512-32.8704l48.6912 15.872a51.2 51.2 0 1 1-31.6416 97.3312l-48.64-15.8208a51.2 51.2 0 0 1-32.9216-64.512z m193.7408-268.8a51.2 51.2 0 0 1 71.5264 11.3664l30.1056 41.4208A51.2 51.2 0 1 1 215.509504 215.552l-30.1056-41.4208a51.2 51.2 0 0 1 11.3152-71.5264z" p-id="5560"></path></svg>