<?xml version="1.0" standalone="no"?><!DOCTYPE svg PUBLIC "-//W3C//DTD SVG 1.1//EN" "http://www.w3.org/Graphics/SVG/1.1/DTD/svg11.dtd"><svg t="1615432182663" class="icon" viewBox="0 0 1024 1024" version="1.1" xmlns="http://www.w3.org/2000/svg" p-id="5421" xmlns:xlink="http://www.w3.org/1999/xlink" width="200" height="200"><defs><style type="text/css"></style></defs><path d="M541.9875 946.800471a38.618049 38.618049 0 1 1 0 77.162959H427.157316a38.618049 38.618049 0 1 1 0-77.162959h114.830184zM484.572408 0c70.653477 0 127.995429 57.341952 127.995429 127.995429v23.99a352.097139 352.097139 0 0 1 224.02857 328.033999l-0.07314 334.47034h55.294025a40.739116 40.739116 0 1 1 0 81.478233H77.327524a40.739116 40.739116 0 1 1 0-81.478233h55.220885V480.019428c0-149.2061 92.888111-276.762687 223.95543-328.033999l0.07314-23.99c0-70.653477 57.341952-127.995429 127.995429-127.995429z m0 70.799757c-35.326738 0-58.000214 21.868933-58.000214 57.195672v4.754116a354.437627 354.437627 0 0 1 116.58555 0.07314l-0.07314-4.827256c0-35.326738-23.185458-57.195672-58.512196-57.195672z" p-id="5422"></path></svg>