<?xml version="1.0" standalone="no"?><!DOCTYPE svg PUBLIC "-//W3C//DTD SVG 1.1//EN" "http://www.w3.org/Graphics/SVG/1.1/DTD/svg11.dtd"><svg t="1615432550284" class="icon" viewBox="0 0 1032 1024" version="1.1" xmlns="http://www.w3.org/2000/svg" p-id="11696" xmlns:xlink="http://www.w3.org/1999/xlink" width="201.5625" height="200"><defs><style type="text/css"></style></defs><path d="M857.6 823.466667l-38.4 8.533333c8.533333 25.6 12.8 59.733333 17.066667 81.066667l38.4-12.8c-4.266667-21.333333-8.533333-51.2-17.066667-76.8z" p-id="11697"></path><path d="M934.4 669.866667l-42.666667-17.066667c-21.333333 34.133333-55.466667 72.533333-89.6 98.133333v-29.866666h-21.333333v-59.733334h-42.666667v59.733334h-38.4V768h34.133334c-8.533333 34.133333-21.333333 76.8-38.4 98.133333 8.533333 12.8 17.066667 38.4 21.333333 51.2 8.533333-12.8 12.8-25.6 21.333333-42.666666V981.333333h42.666667v-149.333333c4.266667 8.533333 8.533333 21.333333 12.8 25.6l29.866667-34.133333c-4.266667-8.533333-29.866667-42.666667-38.4-55.466667v-8.533333h8.533333c8.533333 8.533333 21.333333 29.866667 25.6 38.4 8.533333-8.533333 21.333333-17.066667 34.133333-25.6v25.6h123.733334V768c12.8 8.533333 21.333333 17.066667 34.133333 21.333333 4.266667-12.8 12.8-34.133333 21.333333-46.933333-34.133333-12.8-72.533333-42.666667-98.133333-68.266667-4.266667 0-4.266667 0 0-4.266666z m17.066667 89.6h-93.866667c12.8-12.8 29.866667-29.866667 42.666667-46.933334 17.066667 17.066667 34.133333 34.133333 51.2 46.933334z" p-id="11698"></path><path d="M1006.933333 823.466667l-42.666666-8.533334c-8.533333 25.6-17.066667 51.2-29.866667 81.066667-4.266667-21.333333-8.533333-55.466667-12.8-76.8l-38.4 4.266667c4.266667 25.6 12.8 59.733333 12.8 81.066666l38.4-4.266666c-4.266667 12.8-8.533333 21.333333-12.8 29.866666h-115.2v42.666667h204.8v-42.666667h-46.933333c12.8-34.133333 29.866667-72.533333 42.666666-106.666666zM951.466667 384l-29.866667-12.8-42.666667-192c-17.066667-76.8-85.333333-136.533333-166.4-136.533333H311.466667C230.4 42.666667 162.133333 98.133333 145.066667 174.933333l-42.666667 192-29.866667 17.066667C25.6 405.333333 0 448 0 499.2V768c0 72.533333 55.466667 128 128 128h51.2c17.066667 51.2 64 85.333333 119.466667 85.333333s102.4-34.133333 119.466666-85.333333H597.333333c-8.533333-25.6-8.533333-46.933333-8.533333-72.533333 0-153.6 123.733333-277.333333 277.333333-277.333334 59.733333 0 115.2 17.066667 162.133334 51.2v-98.133333c-4.266667-51.2-29.866667-93.866667-76.8-115.2zM264.533333 750.933333c-46.933333 0-85.333333-38.4-85.333333-85.333333s38.4-85.333333 85.333333-85.333333 85.333333 38.4 85.333334 85.333333-34.133333 85.333333-85.333334 85.333333z m516.266667-277.333333c-8.533333 8.533333-21.333333 17.066667-34.133333 17.066667h-469.333334c-12.8 0-25.6-4.266667-34.133333-17.066667-8.533333-8.533333-12.8-21.333333-8.533333-34.133333l38.4-179.2c8.533333-38.4 42.666667-68.266667 85.333333-68.266667h307.2c38.4 0 76.8 25.6 85.333333 68.266667l38.4 179.2c0 12.8 0 25.6-8.533333 34.133333z" p-id="11699"></path></svg>