<?xml version="1.0" standalone="no"?><!DOCTYPE svg PUBLIC "-//W3C//DTD SVG 1.1//EN" "http://www.w3.org/Graphics/SVG/1.1/DTD/svg11.dtd"><svg t="1615432547368" class="icon" viewBox="0 0 1024 1024" version="1.1" xmlns="http://www.w3.org/2000/svg" p-id="11558" xmlns:xlink="http://www.w3.org/1999/xlink" width="200" height="200"><defs><style type="text/css"></style></defs><path d="M951.466667 384l-29.866667-12.8-42.666667-192c-17.066667-76.8-85.333333-136.533333-166.4-136.533333H311.466667C230.4 42.666667 162.133333 98.133333 145.066667 174.933333l-42.666667 192-29.866667 17.066667C25.6 405.333333 0 448 0 499.2V768c0 72.533333 55.466667 128 128 128h51.2c17.066667 51.2 64 85.333333 119.466667 85.333333s102.4-34.133333 119.466666-85.333333h183.466667c17.066667 51.2 64 85.333333 119.466667 85.333333s102.4-34.133333 119.466666-85.333333H896c72.533333 0 128-55.466667 128-128v-268.8c0-51.2-25.6-93.866667-72.533333-115.2zM264.533333 750.933333c-46.933333 0-85.333333-38.4-85.333333-85.333333s38.4-85.333333 85.333333-85.333333 85.333333 38.4 85.333334 85.333333-34.133333 85.333333-85.333334 85.333333z m12.8-260.266666c-12.8 0-25.6-4.266667-34.133333-17.066667-8.533333-8.533333-12.8-21.333333-8.533333-34.133333l38.4-179.2c8.533333-38.4 42.666667-68.266667 85.333333-68.266667h307.2c38.4 0 76.8 25.6 85.333333 68.266667l38.4 179.2c4.266667 12.8 0 25.6-8.533333 34.133333-8.533333 8.533333-21.333333 17.066667-34.133333 17.066667h-469.333334z m482.133334 260.266666c-46.933333 0-85.333333-38.4-85.333334-85.333333s38.4-85.333333 85.333334-85.333333 85.333333 38.4 85.333333 85.333333-38.4 85.333333-85.333333 85.333333z" p-id="11559"></path></svg>