<?xml version="1.0" standalone="no"?><!DOCTYPE svg PUBLIC "-//W3C//DTD SVG 1.1//EN" "http://www.w3.org/Graphics/SVG/1.1/DTD/svg11.dtd"><svg t="1615431382766" class="icon" viewBox="0 0 1024 1024" version="1.1" xmlns="http://www.w3.org/2000/svg" p-id="5283" xmlns:xlink="http://www.w3.org/1999/xlink" width="200" height="200"><defs><style type="text/css"></style></defs><path d="M896 85.333333H128C55.466667 85.333333 0 140.8 0 213.333333v597.333334c0 72.533333 55.466667 128 128 128h768c72.533333 0 128-55.466667 128-128V213.333333c0-72.533333-55.466667-128-128-128zM179.2 277.333333c0-17.066667 12.8-34.133333 34.133333-34.133333h298.666667c17.066667 0 34.133333 12.8 34.133333 34.133333v170.666667c0 17.066667-12.8 34.133333-34.133333 34.133333H213.333333c-17.066667 0-34.133333-12.8-34.133333-34.133333v-170.666667z m98.133333 499.2c-51.2 0-93.866667-42.666667-93.866666-93.866666s42.666667-93.866667 93.866666-93.866667 93.866667 42.666667 93.866667 93.866667-42.666667 93.866667-93.866667 93.866666z m277.333334 0c-51.2 0-93.866667-42.666667-93.866667-93.866666s42.666667-93.866667 93.866667-93.866667 93.866667 42.666667 93.866666 93.866667-42.666667 93.866667-93.866666 93.866666z m256-298.666666h-128c-17.066667 0-34.133333-12.8-34.133334-34.133334s12.8-34.133333 34.133334-34.133333h128c17.066667 0 34.133333 12.8 34.133333 34.133333s-17.066667 34.133333-34.133333 34.133334z m0-170.666667h-128c-17.066667 0-34.133333-12.8-34.133334-34.133333s12.8-34.133333 34.133334-34.133334h128c17.066667 0 34.133333 12.8 34.133333 34.133334s-17.066667 34.133333-34.133333 34.133333z" p-id="5284"></path></svg>